# xmcd CD database file
#
# Track frame offsets:
#	150
#	20055
#	33605
#	44702
#	59235
#	73842
#	84385
#	106922
#	123657
#	134280
#
# Disc length: 1957 seconds
#
# Revision: 1
# Processed by: cddbd v1.4PL0 Copyright (c) Steve Scherf et al.
# Submitted via: Feurio! 1.62 - http://www.feurio.com
#
DISCID=9b07a30a
DTITLE=Georg Hug - go to Nashville
DYEAR=1900
DGENRE=
TTITLE0=Joe's Honky Tonk
TTITLE1=The Curtain's up
TTITLE2=Lord Let This Song...
TTITLE3=Mama's Apple Pies
TTITLE4=Wrong Horse
TTITLE5=Sweet Sweet Girl
TTITLE6=Now George, Wake Up
TTITLE7=My Home
TTITLE8=I Want Go To Nashville
TTITLE9=You'd Break My Heart
EXTD=
EXTT0=
EXTT1=
EXTT2=
EXTT3=
EXTT4=
EXTT5=
EXTT6=
EXTT7=
EXTT8=
EXTT9=
PLAYORDER=
